<svg xmlns="http://www.w3.org/2000/svg" xmlns:xlink="http://www.w3.org/1999/xlink" xmlns:lucid="lucid" width="853.72" height="774.65"><g transform="translate(-202.5 -185.25783385817596)" lucid:page-tab-id="0_0"><path d="M0 0h1870.87v1322.83H0z" fill="#fff"/><path d="M622.3 253.6a6 6 0 0 1 6-6h401.42a6 6 0 0 1 6 6v679.8a6 6 0 0 1-6 6h-401.4a6 6 0 0 1-6-6z" stroke="#3a414a" fill="#edf5ff"/><path d="M622.3 211.26a6 6 0 0 1 6-6h228a6 6 0 0 1 6 6v30.33a6 6 0 0 1-6 6h-228a6 6 0 0 1-6-6z" stroke="#000" stroke-opacity="0" fill="#fff" fill-opacity="0"/><use xlink:href="#a" transform="matrix(1,0,0,1,627.3131374948607,210.25783385817596) translate(0 23.395833333333332)"/><path d="M339.3 365.34c0 6.14-6.38 11.1-14.3 11.1-7.92 0-14.3-4.96-14.3-11.1 0-6.07 6.38-11.03 14.3-11.03 7.92 0 14.3 4.97 14.3 11.04m-6.3 2.44h-16c4.8 7.4 11.2 7.4 16 0h-16m4.8-5.7c0-1.02-1.08-1.85-2.4-1.85-1.34 0-2.4.83-2.4 1.85 0 1.03 1.06 1.85 2.4 1.85 1.32 0 2.4-.82 2.4-1.85m11.2 0c0-1.02-1.06-1.85-2.4-1.85-1.32 0-2.4.83-2.4 1.85 0 1.03 1.08 1.85 2.4 1.85 1.34 0 2.4-.82 2.4-1.85z" stroke="#3a414a" fill="#fff"/><path d="M325 376.44v28.85a17.93 17.93 0 0 1-3.6 10.8l-5.6 7.42a.02.02 0 0 1-.04-.02l5.66-7.6a4.46 4.46 0 0 1 7.16 0l5.66 7.6a.02.02 0 0 1-.03.02L325 411.3" stroke="#3a414a" fill="none"/><path d="M308.97 381.4l10.92 6.7a9.77 9.77 0 0 0 10.2 0l10.93-6.7" stroke="#3a414a" fill="none"/><path d="M318.8 377.66a17.42 17.42 0 0 1 6.2-1.15 17.42 17.42 0 0 1 6.2 1.16l4.22 1.6a8.1 8.1 0 0 1 5.2 8.12l-2.4 34.95a6.42 6.42 0 0 1-6.4 5.98h-13.64a6.42 6.42 0 0 1-6.4-5.97l-2.4-34.95a8.1 8.1 0 0 1 5.2-8.12zM339.3 365.34c0 6.14-6.38 11.1-14.3 11.1-7.92 0-14.3-4.96-14.3-11.1 0-6.07 6.38-11.03 14.3-11.03 7.92 0 14.3 4.97 14.3 11.04z" fill="none"/><path d="M234 434.3a6 6 0 0 1 6-6h170a6 6 0 0 1 6 6v51.35a6 6 0 0 1-6 6H240a6 6 0 0 1-6-6z" stroke="#000" stroke-opacity="0" fill="#fff" fill-opacity="0"/><use xlink:href="#b" transform="matrix(1,0,0,1,239,433.31437529106825) translate(45.93827160493827 17.77777777777778)"/><use xlink:href="#c" transform="matrix(1,0,0,1,239,433.31437529106825) translate(52.11111111111111 44.44444444444444)"/><path d="M339.3 722.35c0 6.15-6.38 11.1-14.3 11.1-7.92 0-14.3-4.95-14.3-11.1 0-6.06 6.38-11.02 14.3-11.02 7.92 0 14.3 4.96 14.3 11.02m-6.3 2.45h-16c4.8 7.4 11.2 7.4 16 0h-16m4.8-5.7c0-1.02-1.08-1.85-2.4-1.85-1.34 0-2.4.83-2.4 1.85s1.06 1.85 2.4 1.85c1.32 0 2.4-.83 2.4-1.85m11.2 0c0-1.02-1.06-1.85-2.4-1.85-1.32 0-2.4.83-2.4 1.85s1.08 1.85 2.4 1.85c1.34 0 2.4-.83 2.4-1.85z" stroke="#3a414a" fill="#fff"/><path d="M325 733.45v28.86a17.93 17.93 0 0 1-3.6 10.8l-5.6 7.44a.02.02 0 0 1-.04-.03l5.66-7.6a4.46 4.46 0 0 1 7.16 0l5.66 7.6a.02.02 0 0 1-.03.04L325 768.3" stroke="#3a414a" fill="none"/><path d="M308.97 738.4l10.92 6.7a9.77 9.77 0 0 0 10.2 0l10.93-6.7" stroke="#3a414a" fill="none"/><path d="M318.8 734.67a17.42 17.42 0 0 1 6.2-1.14 17.42 17.42 0 0 1 6.2 1.14l4.22 1.6a8.1 8.1 0 0 1 5.2 8.13l-2.4 34.94a6.42 6.42 0 0 1-6.4 6h-13.64a6.42 6.42 0 0 1-6.4-6l-2.4-34.94a8.1 8.1 0 0 1 5.2-8.12zM339.3 722.35c0 6.15-6.38 11.1-14.3 11.1-7.92 0-14.3-4.95-14.3-11.1 0-6.06 6.38-11.02 14.3-11.02 7.92 0 14.3 4.96 14.3 11.02z" fill="none"/><path d="M222.5 791.33a6 6 0 0 1 6-6h193a6 6 0 0 1 6 6v51.33a6 6 0 0 1-6 6h-193a6 6 0 0 1-6-6z" stroke="#000" stroke-opacity="0" fill="#fff" fill-opacity="0"/><use xlink:href="#d" transform="matrix(1,0,0,1,227.5,790.3280079930605) translate(56.82098765432099 17.77777777777778)"/><use xlink:href="#e" transform="matrix(1,0,0,1,227.5,790.3280079930605) translate(48.79629629629629 44.44444444444444)"/><path d="M788.4 288a6 6 0 0 1 6-6h170a6 6 0 0 1 6 6v67a6 6 0 0 1-6 6h-170a6 6 0 0 1-6-6z" stroke="#3a414a" fill="#fff"/><path d="M768.4 297.75a6 6 0 0 1 6-6h28a6 6 0 0 1 6 6v8a6 6 0 0 1-6 6h-28a6 6 0 0 1-6-6zM768.4 337.25a6 6 0 0 1 6-6h28a6 6 0 0 1 6 6v8a6 6 0 0 1-6 6h-28a6 6 0 0 1-6-6z" stroke="#3a414a" fill="#fff"/><use xlink:href="#f" transform="matrix(1,0,0,1,808.8148837082741,289.9) translate(41.98765432098766 36.44444444444444)"/><path d="M788.4 424a6 6 0 0 1 6-6h170a6 6 0 0 1 6 6v67a6 6 0 0 1-6 6h-170a6 6 0 0 1-6-6z" stroke="#3a414a" fill="#fff"/><path d="M768.4 433.75a6 6 0 0 1 6-6h28a6 6 0 0 1 6 6v8a6 6 0 0 1-6 6h-28a6 6 0 0 1-6-6zM768.4 473.25a6 6 0 0 1 6-6h28a6 6 0 0 1 6 6v8a6 6 0 0 1-6 6h-28a6 6 0 0 1-6-6z" stroke="#3a414a" fill="#fff"/><use xlink:href="#g" transform="matrix(1,0,0,1,808.8148837082741,425.9) translate(40.814814814814824 36.44444444444444)"/><path d="M788.4 696a6 6 0 0 1 6-6h170a6 6 0 0 1 6 6v67a6 6 0 0 1-6 6h-170a6 6 0 0 1-6-6z" stroke="#3a414a" fill="#fff"/><path d="M768.4 705.75a6 6 0 0 1 6-6h28a6 6 0 0 1 6 6v8a6 6 0 0 1-6 6h-28a6 6 0 0 1-6-6zM768.4 745.25a6 6 0 0 1 6-6h28a6 6 0 0 1 6 6v8a6 6 0 0 1-6 6h-28a6 6 0 0 1-6-6z" stroke="#3a414a" fill="#fff"/><use xlink:href="#h" transform="matrix(1,0,0,1,808.8148837082741,697.9) translate(30.876543209876544 36.44444444444444)"/><path d="M788.4 560a6 6 0 0 1 6-6h170a6 6 0 0 1 6 6v67a6 6 0 0 1-6 6h-170a6 6 0 0 1-6-6z" stroke="#3a414a" fill="#fff"/><path d="M768.4 569.75a6 6 0 0 1 6-6h28a6 6 0 0 1 6 6v8a6 6 0 0 1-6 6h-28a6 6 0 0 1-6-6zM768.4 609.25a6 6 0 0 1 6-6h28a6 6 0 0 1 6 6v8a6 6 0 0 1-6 6h-28a6 6 0 0 1-6-6z" stroke="#3a414a" fill="#fff"/><use xlink:href="#i" transform="matrix(1,0,0,1,808.8148837082741,561.9) translate(24.734567901234584 36.44444444444444)"/><path d="M788.4 832a6 6 0 0 1 6-6h170a6 6 0 0 1 6 6v67a6 6 0 0 1-6 6h-170a6 6 0 0 1-6-6z" stroke="#3a414a" fill="#fff"/><path d="M768.4 841.75a6 6 0 0 1 6-6h28a6 6 0 0 1 6 6v8a6 6 0 0 1-6 6h-28a6 6 0 0 1-6-6zM768.4 881.25a6 6 0 0 1 6-6h28a6 6 0 0 1 6 6v8a6 6 0 0 1-6 6h-28a6 6 0 0 1-6-6z" stroke="#3a414a" fill="#fff"/><use xlink:href="#j" transform="matrix(1,0,0,1,808.8148837082741,833.9) translate(16.740740740740748 36.44444444444444)"/><path d="M341.5 381.25l237.86-74.36" stroke="#3a414a" fill="none"/><path d="M341.67 381.72l-.43.14.05-.03-.53-.86-2.54 1.54-.2-.68 3.34-1.05z" stroke="#3a414a" stroke-width=".05" fill="#3a414a"/><path d="M593.46 302.48l-12.24 8.68-2.76-8.84z" stroke="#3a414a" fill="#3a414a"/><path d="M595 363.74h10m40 0c0 11.04-8.95 20-20 20s-20-8.96-20-20c0-11.05 8.95-20 20-20s20 8.95 20 20z" stroke="#3a414a" fill="#fff"/><path d="M595 362.94h10v1.6h-10z" fill="none"/><path d="M645 349.74a6 6 0 0 1 6-6h167a6 6 0 0 1 6 6v25a6 6 0 0 1-6 6H651a6 6 0 0 1-6-6z" stroke="#000" stroke-opacity="0" fill="#fff" fill-opacity="0"/><use xlink:href="#k" transform="matrix(1,0,0,1,650,348.73757047613526) translate(0 19.4609375)"/><path d="M595 302h10m40 0c0 11.05-8.95 20-20 20s-20-8.95-20-20 8.95-20 20-20 20 8.95 20 20z" stroke="#3a414a" fill="#fff"/><path d="M595 301.2h10v1.6h-10z" fill="none"/><path d="M645 288a6 6 0 0 1 6-6h167a6 6 0 0 1 6 6v25a6 6 0 0 1-6 6H651a6 6 0 0 1-6-6z" stroke="#000" stroke-opacity="0" fill="#fff" fill-opacity="0"/><use xlink:href="#l" transform="matrix(1,0,0,1,650,287) translate(0 19.4609375)"/><path d="M595 425.48h10m40 0c0 11.04-8.95 20-20 20s-20-8.96-20-20c0-11.05 8.95-20 20-20s20 8.95 20 20z" stroke="#3a414a" fill="#fff"/><path d="M595 424.68h10v1.6h-10z" fill="none"/><path d="M645 411.48a6 6 0 0 1 6-6h167a6 6 0 0 1 6 6v25a6 6 0 0 1-6 6H651a6 6 0 0 1-6-6z" stroke="#000" stroke-opacity="0" fill="#fff" fill-opacity="0"/><use xlink:href="#m" transform="matrix(1,0,0,1,650,410.4751409522705) translate(0 19.4609375)"/><path d="M595 490.5h10m40 0c0 11.05-8.95 20-20 20s-20-8.95-20-20 8.95-20 20-20 20 8.95 20 20z" stroke="#3a414a" fill="#fff"/><path d="M595 489.7h10v1.6h-10z" fill="none"/><path d="M645 476.5a6 6 0 0 1 6-6h167a6 6 0 0 1 6 6v25a6 6 0 0 1-6 6H651a6 6 0 0 1-6-6z" stroke="#000" stroke-opacity="0" fill="#fff" fill-opacity="0"/><use xlink:href="#n" transform="matrix(1,0,0,1,650,475.5) translate(0 19.4609375)"/><path d="M595 593.5h10m40 0c0 11.05-8.95 20-20 20s-20-8.95-20-20 8.95-20 20-20 20 8.95 20 20z" stroke="#3a414a" fill="#fff"/><path d="M595 592.7h10v1.6h-10z" fill="none"/><path d="M645 579.5a6 6 0 0 1 6-6h167a6 6 0 0 1 6 6v25a6 6 0 0 1-6 6H651a6 6 0 0 1-6-6z" stroke="#000" stroke-opacity="0" fill="#fff" fill-opacity="0"/><use xlink:href="#o" transform="matrix(1,0,0,1,650,578.5) translate(0 19.4609375)"/><path d="M595 696.92h10m40 0c0 11.05-8.95 20-20 20s-20-8.95-20-20c0-11.04 8.95-20 20-20s20 8.96 20 20z" stroke="#3a414a" fill="#fff"/><path d="M595 696.12h10v1.6h-10z" fill="none"/><path d="M645 682.92a6 6 0 0 1 6-6h167a6 6 0 0 1 6 6v25a6 6 0 0 1-6 6H651a6 6 0 0 1-6-6z" stroke="#000" stroke-opacity="0" fill="#fff" fill-opacity="0"/><use xlink:href="#p" transform="matrix(1,0,0,1,650,681.9219920069395) translate(0 19.4609375)"/><path d="M595 762.08h10m40 0c0 11.04-8.95 20-20 20s-20-8.96-20-20c0-11.05 8.95-20 20-20s20 8.95 20 20z" stroke="#3a414a" fill="#fff"/><path d="M595 761.28h10v1.6h-10z" fill="none"/><path d="M645 748.08a6 6 0 0 1 6-6h167a6 6 0 0 1 6 6v25a6 6 0 0 1-6 6H651a6 6 0 0 1-6-6z" stroke="#000" stroke-opacity="0" fill="#fff" fill-opacity="0"/><use xlink:href="#q" transform="matrix(1,0,0,1,650,747.0780079930605) translate(0 19.4609375)"/><path d="M595 865.5h10m40 0c0 11.05-8.95 20-20 20s-20-8.95-20-20 8.95-20 20-20 20 8.95 20 20z" stroke="#3a414a" fill="#fff"/><path d="M595 864.7h10v1.6h-10z" fill="none"/><path d="M645 851.5a6 6 0 0 1 6-6h167a6 6 0 0 1 6 6v25a6 6 0 0 1-6 6H651a6 6 0 0 1-6-6z" stroke="#000" stroke-opacity="0" fill="#fff" fill-opacity="0"/><use xlink:href="#r" transform="matrix(1,0,0,1,650,850.5) translate(0 19.4609375)"/><path d="M341.53 381.36l237.13-16.5" stroke="#3a414a" fill="none"/><path d="M341.58 381.86l-.4.03.1-.07-.5-.86-1.77 1.07-.93.07-.07-1 3.5-.24z" stroke="#3a414a" stroke-width=".05" fill="#3a414a"/><path d="M593.4 363.85l-13.92 5.6-.65-9.23z" stroke="#3a414a" fill="#3a414a"/><path d="M341.52 381.48l237.34 41.2" stroke="#3a414a" fill="none"/><path d="M341.62 381l-.17.98-.32-.06.16-.1-.53-.85-1.14.7-1.64-.3.16-.98z" stroke="#3a414a" stroke-width=".05" fill="#3a414a"/><path d="M593.4 425.2l-14.84 2.13 1.58-9.14z" stroke="#3a414a" fill="#3a414a"/><path d="M341.5 381.6l238.45 102.43" stroke="#3a414a" fill="none"/><path d="M341.7 381.14l-.4.92-.23-.1.22-.13-.53-.86-.83.5-1.87-.8.4-.92z" stroke="#3a414a" stroke-width=".05" fill="#3a414a"/><path d="M593.5 489.86l-14.92-1.37 3.66-8.53z" stroke="#3a414a" fill="#3a414a"/><path d="M341.34 381.8l243.4 302.36" stroke="#3a414a" fill="none"/><path d="M341.74 381.48l-.78.63-.05-.05.4-.22-.53-.86-.5.3-1.5-1.9.77-.62z" stroke="#3a414a" stroke-width=".05" fill="#3a414a"/><path d="M594 695.66l-12.57-8.2 7.22-5.82z" stroke="#3a414a" fill="#3a414a"/><path d="M341.3 381.8l244.6 366.65" stroke="#3a414a" fill="none"/><path d="M341.73 381.55l-.83.55-.02-.03.4-.24-.5-.86-.46.27-1.37-2.06.83-.55z" stroke="#3a414a" stroke-width=".05" fill="#3a414a"/><path d="M594.1 760.73l-11.77-9.3 7.7-5.14z" stroke="#3a414a" fill="#3a414a"/><path d="M341.46 738.16l239.3-136.54" stroke="#3a414a" fill="none"/><path d="M341.72 738.6l-.44.24-.5-.86-2.56 1.56-.04-.08 3.05-1.74z" stroke="#3a414a" stroke-width=".05" fill="#3a414a"/><path d="M593.6 594.3l-10.1 11.1-4.6-8.05z" stroke="#3a414a" fill="#3a414a"/><path d="M341.48 738.64l238.87 119.53" stroke="#3a414a" fill="none"/><path d="M341.7 738.2l-.44.9-.2-.12.23-.14-.53-.86-.77.47-1.88-.93.45-.9z" stroke="#3a414a" stroke-width=".05" fill="#3a414a"/><path d="M593.55 864.78l-14.83-2.24 4.15-8.3z" stroke="#3a414a" fill="#3a414a"/><defs><path fill="#3a414a" d="M205 0l-28-72H64L36 0H1l101-248h38L239 0h-34zm-38-99l-47-123c-12 45-31 82-46 123h93" id="s"/><path fill="#3a414a" d="M59-47c-2 24 18 29 38 22v24C64 9 27 4 27-40v-127H5v-23h24l9-43h21v43h35v23H59v120" id="t"/><path fill="#3a414a" d="M100-194c62-1 85 37 85 99 1 63-27 99-86 99S16-35 15-95c0-66 28-99 85-99zM99-20c44 1 53-31 53-75 0-43-8-75-51-75s-53 32-53 75 10 74 51 75" id="u"/><path fill="#3a414a" d="M210-169c-67 3-38 105-44 169h-31v-121c0-29-5-50-35-48C34-165 62-65 56 0H25l-1-190h30c1 10-1 24 2 32 10-44 99-50 107 0 11-21 27-35 58-36 85-2 47 119 55 194h-31v-121c0-29-5-49-35-48" id="v"/><path fill="#3a414a" d="M143 0L79-87 56-68V0H24v-261h32v163l83-92h37l-77 82L181 0h-38" id="w"/><path fill="#3a414a" d="M114-163C36-179 61-72 57 0H25l-1-190h30c1 12-1 29 2 39 6-27 23-49 58-41v29" id="x"/><path fill="#3a414a" d="M141-36C126-15 110 5 73 4 37 3 15-17 15-53c-1-64 63-63 125-63 3-35-9-54-41-54-24 1-41 7-42 31l-33-3c5-37 33-52 76-52 45 0 72 20 72 64v82c-1 20 7 32 28 27v20c-31 9-61-2-59-35zM48-53c0 20 12 33 32 33 41-3 63-29 60-74-43 2-92-5-92 41" id="y"/><path fill="#3a414a" d="M101-234c-31-9-42 10-38 44h38v23H63V0H32v-167H5v-23h27c-7-52 17-82 69-68v24" id="z"/><g id="a"><use transform="matrix(0.07407407407407407,0,0,0.07407407407407407,0,0)" xlink:href="#s"/><use transform="matrix(0.07407407407407407,0,0,0.07407407407407407,17.77777777777778,0)" xlink:href="#t"/><use transform="matrix(0.07407407407407407,0,0,0.07407407407407407,25.185185185185183,0)" xlink:href="#u"/><use transform="matrix(0.07407407407407407,0,0,0.07407407407407407,40,0)" xlink:href="#v"/><use transform="matrix(0.07407407407407407,0,0,0.07407407407407407,62.148148148148145,0)" xlink:href="#w"/><use transform="matrix(0.07407407407407407,0,0,0.07407407407407407,75.48148148148148,0)" xlink:href="#x"/><use transform="matrix(0.07407407407407407,0,0,0.07407407407407407,84.29629629629629,0)" xlink:href="#y"/><use transform="matrix(0.07407407407407407,0,0,0.07407407407407407,99.1111111111111,0)" xlink:href="#z"/><use transform="matrix(0.07407407407407407,0,0,0.07407407407407407,106.51851851851852,0)" xlink:href="#t"/></g><path fill="#3a414a" d="M185-189c-5-48-123-54-124 2 14 75 158 14 163 119 3 78-121 87-175 55-17-10-28-26-33-46l33-7c5 56 141 63 141-1 0-78-155-14-162-118-5-82 145-84 179-34 5 7 8 16 11 25" id="A"/><path fill="#3a414a" d="M100-194c63 0 86 42 84 106H49c0 40 14 67 53 68 26 1 43-12 49-29l28 8c-11 28-37 45-77 45C44 4 14-33 15-96c1-61 26-98 85-98zm52 81c6-60-76-77-97-28-3 7-6 17-6 28h103" id="B"/><path fill="#3a414a" d="M96-169c-40 0-48 33-48 73s9 75 48 75c24 0 41-14 43-38l32 2c-6 37-31 61-74 61-59 0-76-41-82-99-10-93 101-131 147-64 4 7 5 14 7 22l-32 3c-4-21-16-35-41-35" id="C"/><path fill="#3a414a" d="M84 4C-5 8 30-112 23-190h32v120c0 31 7 50 39 49 72-2 45-101 50-169h31l1 190h-30c-1-10 1-25-2-33-11 22-28 36-60 37" id="D"/><path fill="#3a414a" d="M24-231v-30h32v30H24zM24 0v-190h32V0H24" id="E"/><path fill="#3a414a" d="M179-190L93 31C79 59 56 82 12 73V49c39 6 53-20 64-50L1-190h34L92-34l54-156h33" id="F"/><g id="b"><use transform="matrix(0.06172839506172839,0,0,0.06172839506172839,0,0)" xlink:href="#A"/><use transform="matrix(0.06172839506172839,0,0,0.06172839506172839,14.814814814814813,0)" xlink:href="#B"/><use transform="matrix(0.06172839506172839,0,0,0.06172839506172839,27.160493827160494,0)" xlink:href="#C"/><use transform="matrix(0.06172839506172839,0,0,0.06172839506172839,38.27160493827161,0)" xlink:href="#D"/><use transform="matrix(0.06172839506172839,0,0,0.06172839506172839,50.617283950617285,0)" xlink:href="#x"/><use transform="matrix(0.06172839506172839,0,0,0.06172839506172839,57.96296296296296,0)" xlink:href="#E"/><use transform="matrix(0.06172839506172839,0,0,0.06172839506172839,62.839506172839506,0)" xlink:href="#t"/><use transform="matrix(0.06172839506172839,0,0,0.06172839506172839,69.01234567901234,0)" xlink:href="#F"/></g><path fill="#3a414a" d="M85-194c31 0 48 13 60 33l-1-100h32l1 261h-30c-2-10 0-23-3-31C134-8 116 4 85 4 32 4 16-35 15-94c0-66 23-100 70-100zm9 24c-40 0-46 34-46 75 0 40 6 74 45 74 42 0 51-32 51-76 0-42-9-74-50-73" id="G"/><g id="c"><use transform="matrix(0.06172839506172839,0,0,0.06172839506172839,0,0)" xlink:href="#y"/><use transform="matrix(0.06172839506172839,0,0,0.06172839506172839,12.345679012345679,0)" xlink:href="#D"/><use transform="matrix(0.06172839506172839,0,0,0.06172839506172839,24.691358024691358,0)" xlink:href="#G"/><use transform="matrix(0.06172839506172839,0,0,0.06172839506172839,37.03703703703704,0)" xlink:href="#E"/><use transform="matrix(0.06172839506172839,0,0,0.06172839506172839,41.91358024691358,0)" xlink:href="#t"/><use transform="matrix(0.06172839506172839,0,0,0.06172839506172839,48.086419753086425,0)" xlink:href="#u"/><use transform="matrix(0.06172839506172839,0,0,0.06172839506172839,60.4320987654321,0)" xlink:href="#x"/></g><path fill="#3a414a" d="M212-179c-10-28-35-45-73-45-59 0-87 40-87 99 0 60 29 101 89 101 43 0 62-24 78-52l27 14C228-24 195 4 139 4 59 4 22-46 18-125c-6-104 99-153 187-111 19 9 31 26 39 46" id="H"/><path fill="#3a414a" d="M135-143c-3-34-86-38-87 0 15 53 115 12 119 90S17 21 10-45l28-5c4 36 97 45 98 0-10-56-113-15-118-90-4-57 82-63 122-42 12 7 21 19 24 35" id="I"/><g id="d"><use transform="matrix(0.06172839506172839,0,0,0.06172839506172839,0,0)" xlink:href="#H"/><use transform="matrix(0.06172839506172839,0,0,0.06172839506172839,15.987654320987653,0)" xlink:href="#u"/><use transform="matrix(0.06172839506172839,0,0,0.06172839506172839,28.333333333333332,0)" xlink:href="#I"/><use transform="matrix(0.06172839506172839,0,0,0.06172839506172839,39.44444444444444,0)" xlink:href="#v"/><use transform="matrix(0.06172839506172839,0,0,0.06172839506172839,57.90123456790123,0)" xlink:href="#u"/><use transform="matrix(0.06172839506172839,0,0,0.06172839506172839,70.24691358024691,0)" xlink:href="#I"/></g><path fill="#3a414a" d="M108 0H70L1-190h34L89-25l56-165h34" id="J"/><path fill="#3a414a" d="M24 0v-261h32V0H24" id="K"/><path fill="#3a414a" d="M115-194c55 1 70 41 70 98S169 2 115 4C84 4 66-9 55-30l1 105H24l-1-265h31l2 30c10-21 28-34 59-34zm-8 174c40 0 45-34 45-75s-6-73-45-74c-42 0-51 32-51 76 0 43 10 73 51 73" id="L"/><g id="e"><use transform="matrix(0.06172839506172839,0,0,0.06172839506172839,0,0)" xlink:href="#G"/><use transform="matrix(0.06172839506172839,0,0,0.06172839506172839,12.345679012345679,0)" xlink:href="#B"/><use transform="matrix(0.06172839506172839,0,0,0.06172839506172839,24.691358024691358,0)" xlink:href="#J"/><use transform="matrix(0.06172839506172839,0,0,0.06172839506172839,35.80246913580247,0)" xlink:href="#B"/><use transform="matrix(0.06172839506172839,0,0,0.06172839506172839,48.148148148148145,0)" xlink:href="#K"/><use transform="matrix(0.06172839506172839,0,0,0.06172839506172839,53.02469135802469,0)" xlink:href="#u"/><use transform="matrix(0.06172839506172839,0,0,0.06172839506172839,65.37037037037037,0)" xlink:href="#L"/><use transform="matrix(0.06172839506172839,0,0,0.06172839506172839,77.71604938271605,0)" xlink:href="#B"/><use transform="matrix(0.06172839506172839,0,0,0.06172839506172839,90.06172839506173,0)" xlink:href="#x"/></g><g id="f"><use transform="matrix(0.061728395061728385,0,0,0.061728395061728385,0,0)" xlink:href="#A"/><use transform="matrix(0.061728395061728385,0,0,0.061728395061728385,14.814814814814813,0)" xlink:href="#B"/><use transform="matrix(0.061728395061728385,0,0,0.061728395061728385,27.16049382716049,0)" xlink:href="#t"/><use transform="matrix(0.061728395061728385,0,0,0.061728395061728385,33.33333333333333,0)" xlink:href="#D"/><use transform="matrix(0.061728395061728385,0,0,0.061728395061728385,45.679012345679006,0)" xlink:href="#L"/></g><path fill="#3a414a" d="M240 0l2-218c-23 76-54 145-80 218h-23L58-218 59 0H30v-248h44l77 211c21-75 51-140 76-211h43V0h-30" id="M"/><g id="g"><use transform="matrix(0.061728395061728385,0,0,0.061728395061728385,0,0)" xlink:href="#M"/><use transform="matrix(0.061728395061728385,0,0,0.061728395061728385,18.456790123456788,0)" xlink:href="#u"/><use transform="matrix(0.061728395061728385,0,0,0.061728395061728385,30.802469135802465,0)" xlink:href="#G"/><use transform="matrix(0.061728395061728385,0,0,0.061728395061728385,43.14814814814814,0)" xlink:href="#B"/><use transform="matrix(0.061728395061728385,0,0,0.061728395061728385,55.493827160493815,0)" xlink:href="#K"/></g><path fill="#3a414a" d="M30 0v-248h187v28H63v79h144v27H63v87h162V0H30" id="N"/><path fill="#3a414a" d="M141 0L90-78 38 0H4l68-98-65-92h35l48 74 47-74h35l-64 92 68 98h-35" id="O"/><g id="h"><use transform="matrix(0.061728395061728385,0,0,0.061728395061728385,0,0)" xlink:href="#N"/><use transform="matrix(0.061728395061728385,0,0,0.061728395061728385,14.814814814814813,0)" xlink:href="#O"/><use transform="matrix(0.061728395061728385,0,0,0.061728395061728385,25.925925925925924,0)" xlink:href="#B"/><use transform="matrix(0.061728395061728385,0,0,0.061728395061728385,38.2716049382716,0)" xlink:href="#C"/><use transform="matrix(0.061728395061728385,0,0,0.061728395061728385,49.38271604938271,0)" xlink:href="#D"/><use transform="matrix(0.061728395061728385,0,0,0.061728395061728385,61.728395061728385,0)" xlink:href="#t"/><use transform="matrix(0.061728395061728385,0,0,0.061728395061728385,67.90123456790123,0)" xlink:href="#B"/></g><path fill="#3a414a" d="M143 4C61 4 22-44 18-125c-5-107 100-154 193-111 17 8 29 25 37 43l-32 9c-13-25-37-40-76-40-61 0-88 39-88 99 0 61 29 100 91 101 35 0 62-11 79-27v-45h-74v-28h105v86C228-13 192 4 143 4" id="P"/><path fill="#3a414a" d="M117-194c89-4 53 116 60 194h-32v-121c0-31-8-49-39-48C34-167 62-67 57 0H25l-1-190h30c1 10-1 24 2 32 11-22 29-35 61-36" id="Q"/><g id="i"><use transform="matrix(0.061728395061728385,0,0,0.061728395061728385,0,0)" xlink:href="#P"/><use transform="matrix(0.061728395061728385,0,0,0.061728395061728385,17.28395061728395,0)" xlink:href="#B"/><use transform="matrix(0.061728395061728385,0,0,0.061728395061728385,29.629629629629626,0)" xlink:href="#Q"/><use transform="matrix(0.061728395061728385,0,0,0.061728395061728385,41.9753086419753,0)" xlink:href="#B"/><use transform="matrix(0.061728395061728385,0,0,0.061728395061728385,54.32098765432098,0)" xlink:href="#x"/><use transform="matrix(0.061728395061728385,0,0,0.061728395061728385,61.66666666666666,0)" xlink:href="#y"/><use transform="matrix(0.061728395061728385,0,0,0.061728395061728385,74.01234567901233,0)" xlink:href="#t"/><use transform="matrix(0.061728395061728385,0,0,0.061728395061728385,80.18518518518516,0)" xlink:href="#B"/></g><path fill="#3a414a" d="M233-177c-1 41-23 64-60 70L243 0h-38l-65-103H63V0H30v-248c88 3 205-21 203 71zM63-129c60-2 137 13 137-47 0-61-80-42-137-45v92" id="R"/><g id="j"><use transform="matrix(0.061728395061728385,0,0,0.061728395061728385,0,0)" xlink:href="#R"/><use transform="matrix(0.061728395061728385,0,0,0.061728395061728385,15.987654320987652,0)" xlink:href="#B"/><use transform="matrix(0.061728395061728385,0,0,0.061728395061728385,28.33333333333333,0)" xlink:href="#L"/><use transform="matrix(0.061728395061728385,0,0,0.061728395061728385,40.679012345679006,0)" xlink:href="#x"/><use transform="matrix(0.061728395061728385,0,0,0.061728395061728385,48.02469135802468,0)" xlink:href="#u"/><use transform="matrix(0.061728395061728385,0,0,0.061728395061728385,60.37037037037036,0)" xlink:href="#G"/><use transform="matrix(0.061728395061728385,0,0,0.061728395061728385,72.71604938271604,0)" xlink:href="#D"/><use transform="matrix(0.061728395061728385,0,0,0.061728395061728385,85.06172839506172,0)" xlink:href="#C"/><use transform="matrix(0.061728395061728385,0,0,0.061728395061728385,96.17283950617283,0)" xlink:href="#B"/></g><path fill="#3a414a" d="M631 20c-350 0-501-215-501-562 0-355 162-560 502-560 250 0 399 118 446 323l-192 14c-23-124-109-196-262-196-242 0-305 171-305 415 1 245 61 427 304 427 151 0 248-77 267-215l190 12C1039-107 883 20 631 20" id="S"/><path fill="#3a414a" d="M648-963c-190 6-283 138-283 336V0H185v-1484h181c-2 197 6 404-9 587h3c62-120 159-205 339-205 242 0 351 135 350 381V0H868v-695c1-168-57-273-220-268" id="T"/><path fill="#3a414a" d="M1000-272c3 95 12 159 101 161 21 0 41-3 59-7V-6c-44 10-86 16-139 16-141 2-191-84-197-217h-6C748-76 648 20 446 20c-207 0-318-120-318-322 0-266 194-348 454-354l236-4c12-191-40-305-222-305-140 0-220 47-232 172l-188-17c33-204 181-292 423-292 255 0 401 118 401 364v466zm-683-27c0 109 63 184 175 182 166-3 259-96 306-217 24-65 20-120 20-200-232 7-501-28-501 235" id="U"/><path fill="#3a414a" d="M745-142h380V0H143v-142h422v-798H246v-142h499v940zM545-1292v-192h200v192H545" id="V"/><path fill="#3a414a" d="M706-1102c241 0 344 136 343 381V0H868v-695c1-168-57-273-220-268-190 6-283 138-283 336V0H185c-3-360 6-732-6-1082h170c4 54 7 126 8 185h3c63-121 164-204 346-205" id="W"/><g id="k"><use transform="matrix(0.010850694444444444,0,0,0.010850694444444444,0,0)" xlink:href="#S"/><use transform="matrix(0.010850694444444444,0,0,0.010850694444444444,13.335503472222221,0)" xlink:href="#T"/><use transform="matrix(0.010850694444444444,0,0,0.010850694444444444,26.671006944444443,0)" xlink:href="#U"/><use transform="matrix(0.010850694444444444,0,0,0.010850694444444444,40.006510416666664,0)" xlink:href="#V"/><use transform="matrix(0.010850694444444444,0,0,0.010850694444444444,53.342013888888886,0)" xlink:href="#W"/></g><path fill="#3a414a" d="M682 16c-209 0-323-80-324-285v-671H190v-142h170l58-282h120v282h432v142H538v652c2 114 60 155 182 155 106 0 209-16 297-34v137C921-4 806 16 682 16" id="X"/><g id="l"><use transform="matrix(0.010850694444444444,0,0,0.010850694444444444,0,0)" xlink:href="#V"/><use transform="matrix(0.010850694444444444,0,0,0.010850694444444444,13.335503472222221,0)" xlink:href="#W"/><use transform="matrix(0.010850694444444444,0,0,0.010850694444444444,26.671006944444443,0)" xlink:href="#V"/><use transform="matrix(0.010850694444444444,0,0,0.010850694444444444,40.006510416666664,0)" xlink:href="#X"/></g><path fill="#3a414a" d="M904-1102c199 0 220 177 220 381V0H956v-686c-3-114 0-215-60-264-70-33-125-4-158 71-26 56-39 140-39 252V0H531v-686c-3-114-1-215-61-264-78-41-136 24-157 84-24 69-39 159-39 259V0H105c-3-360 6-732-6-1082h149c6 50 3 123 8 175 36-100 83-195 216-195 135 0 166 79 196 196 42-105 93-196 236-196" id="Y"/><path fill="#3a414a" d="M615-1102c343 0 484 203 482 560-1 347-147 562-488 562-336 0-475-219-479-562-4-349 156-560 485-560zm-8 989c240 0 301-180 301-429 0-245-55-427-290-427-236 0-299 181-299 427 0 243 61 429 288 429" id="Z"/><path fill="#3a414a" d="M865-914c-3-187-2-380-2-570h180v1261c0 76 1 155 6 223H877c-8-49-9-116-10-174h-5C801-44 708 26 530 26c-135 0-234-46-297-139s-95-232-95-419c0-377 131-566 392-566 176 0 271 63 335 184zm-286-51c-222 0-255 197-255 427 0 229 31 425 253 425 237 0 286-195 286-441 0-238-52-411-284-411" id="aa"/><path fill="#3a414a" d="M617-1102c355 0 481 238 477 599H322c5 222 84 388 301 388 144 0 244-59 284-166l158 45C1002-72 854 20 623 20c-342 0-490-220-490-568 0-346 151-554 484-554zm291 461c-18-192-90-328-289-328-194 0-287 128-295 328h584" id="ab"/><path fill="#3a414a" d="M736-142h380V0H134v-142h422v-1200H267v-142h469v1342" id="ac"/><g id="m"><use transform="matrix(0.010850694444444444,0,0,0.010850694444444444,0,0)" xlink:href="#Y"/><use transform="matrix(0.010850694444444444,0,0,0.010850694444444444,13.335503472222221,0)" xlink:href="#Z"/><use transform="matrix(0.010850694444444444,0,0,0.010850694444444444,26.671006944444443,0)" xlink:href="#aa"/><use transform="matrix(0.010850694444444444,0,0,0.010850694444444444,40.006510416666664,0)" xlink:href="#ab"/><use transform="matrix(0.010850694444444444,0,0,0.010850694444444444,53.342013888888886,0)" xlink:href="#ac"/></g><path fill="#3a414a" d="M839-1102c70 0 148 7 206 17v167c-112-18-268-36-363 15-129 69-208 203-208 395V0H294c-10-367 32-789-52-1082h171c21 75 41 161 48 250h5c67-152 152-270 373-270" id="ad"/><g id="n"><use transform="matrix(0.010850694444444444,0,0,0.010850694444444444,0,0)" xlink:href="#X"/><use transform="matrix(0.010850694444444444,0,0,0.010850694444444444,13.335503472222221,0)" xlink:href="#ad"/><use transform="matrix(0.010850694444444444,0,0,0.010850694444444444,26.671006944444443,0)" xlink:href="#U"/><use transform="matrix(0.010850694444444444,0,0,0.010850694444444444,40.006510416666664,0)" xlink:href="#S"/><use transform="matrix(0.010850694444444444,0,0,0.010850694444444444,53.342013888888886,0)" xlink:href="#ab"/></g><g id="o"><use transform="matrix(0.010850694444444444,0,0,0.010850694444444444,0,0)" xlink:href="#ad"/><use transform="matrix(0.010850694444444444,0,0,0.010850694444444444,13.335503472222221,0)" xlink:href="#ab"/><use transform="matrix(0.010850694444444444,0,0,0.010850694444444444,26.671006944444443,0)" xlink:href="#U"/><use transform="matrix(0.010850694444444444,0,0,0.010850694444444444,40.006510416666664,0)" xlink:href="#S"/><use transform="matrix(0.010850694444444444,0,0,0.010850694444444444,53.342013888888886,0)" xlink:href="#X"/><use transform="matrix(0.010850694444444444,0,0,0.010850694444444444,66.67751736111111,0)" xlink:href="#Z"/><use transform="matrix(0.010850694444444444,0,0,0.010850694444444444,80.01302083333334,0)" xlink:href="#ad"/></g><path fill="#3a414a" d="M528 20c-247 0-343-132-343-381v-721h180v686c-4 177 45 284 224 277 194-8 279-136 279-336v-627h181c3 360-6 732 6 1082H885c-4-54-7-126-8-185h-3C809-64 714 20 528 20" id="ae"/><g id="p"><use transform="matrix(0.010850694444444444,0,0,0.010850694444444444,0,0)" xlink:href="#ad"/><use transform="matrix(0.010850694444444444,0,0,0.010850694444444444,13.335503472222221,0)" xlink:href="#ae"/><use transform="matrix(0.010850694444444444,0,0,0.010850694444444444,26.671006944444443,0)" xlink:href="#W"/></g><path fill="#3a414a" d="M365-904c58-129 161-200 334-200 130 0 228 46 293 138s98 233 98 420c0 189-34 331-102 425S824 20 698 20c-170 0-275-64-336-184 0 55-3 116-9 164H179c5-68 6-147 6-223v-1261h180c-2 193 4 394-4 580h4zm283 791c221 0 256-197 256-427 0-229-34-425-254-425-236 0-285 195-285 441 0 237 53 411 283 411" id="af"/><g id="q"><use transform="matrix(0.010850694444444444,0,0,0.010850694444444444,0,0)" xlink:href="#Y"/><use transform="matrix(0.010850694444444444,0,0,0.010850694444444444,13.335503472222221,0)" xlink:href="#af"/><use transform="matrix(0.010850694444444444,0,0,0.010850694444444444,26.671006944444443,0)" xlink:href="#X"/></g><path fill="#3a414a" d="M873-819c-18-114-119-146-250-146-163 0-245 50-245 151 0 151 170 148 294 185 182 54 388 94 388 320 0 240-189 325-439 329-245 4-410-69-454-268l159-31c24 133 136 168 295 165 144-2 270-31 270-171 0-164-195-160-331-202-167-52-350-87-350-299 0-218 173-315 413-313 220 2 373 77 412 260" id="ag"/><g id="r"><use transform="matrix(0.010850694444444444,0,0,0.010850694444444444,0,0)" xlink:href="#X"/><use transform="matrix(0.010850694444444444,0,0,0.010850694444444444,13.335503472222221,0)" xlink:href="#ab"/><use transform="matrix(0.010850694444444444,0,0,0.010850694444444444,26.671006944444443,0)" xlink:href="#ag"/><use transform="matrix(0.010850694444444444,0,0,0.010850694444444444,40.006510416666664,0)" xlink:href="#X"/></g></defs></g></svg>